<svg width="459" height="54" viewBox="0 0 459 54" fill="none" xmlns="http://www.w3.org/2000/svg">
<path d="M380.609 17.5937C380.609 12.0709 385.087 7.59375 390.609 7.59375H441.609C447.132 7.59375 451.609 12.0709 451.609 17.5938V36.5938C451.609 42.1166 447.132 46.5938 441.609 46.5938H390.609C385.087 46.5938 380.609 42.1166 380.609 36.5938V17.5937Z" fill="#292C32"/>
<path d="M398.383 29.125C398.383 28.8594 398.341 28.625 398.258 28.4219C398.18 28.2135 398.039 28.026 397.836 27.8594C397.638 27.6927 397.362 27.5339 397.008 27.3828C396.659 27.2318 396.216 27.0781 395.68 26.9219C395.117 26.7552 394.609 26.5703 394.156 26.3672C393.703 26.1589 393.315 25.9219 392.992 25.6562C392.669 25.3906 392.422 25.0859 392.25 24.7422C392.078 24.3984 391.992 24.0052 391.992 23.5625C391.992 23.1198 392.083 22.7109 392.266 22.3359C392.448 21.9609 392.708 21.6354 393.047 21.3594C393.391 21.0781 393.799 20.8594 394.273 20.7031C394.747 20.5469 395.276 20.4688 395.859 20.4688C396.714 20.4688 397.438 20.6328 398.031 20.9609C398.63 21.2839 399.086 21.7083 399.398 22.2344C399.711 22.7552 399.867 23.3125 399.867 23.9062H398.367C398.367 23.4792 398.276 23.1016 398.094 22.7734C397.911 22.4401 397.635 22.1797 397.266 21.9922C396.896 21.7995 396.427 21.7031 395.859 21.7031C395.323 21.7031 394.88 21.7839 394.531 21.9453C394.182 22.1068 393.922 22.3255 393.75 22.6016C393.583 22.8776 393.5 23.1927 393.5 23.5469C393.5 23.7865 393.549 24.0052 393.648 24.2031C393.753 24.3958 393.911 24.5755 394.125 24.7422C394.344 24.9089 394.62 25.0625 394.953 25.2031C395.292 25.3438 395.695 25.4792 396.164 25.6094C396.81 25.7917 397.367 25.9948 397.836 26.2188C398.305 26.4427 398.69 26.6953 398.992 26.9766C399.299 27.2526 399.526 27.5677 399.672 27.9219C399.823 28.2708 399.898 28.6667 399.898 29.1094C399.898 29.5729 399.805 29.9922 399.617 30.3672C399.43 30.7422 399.161 31.0625 398.812 31.3281C398.464 31.5938 398.044 31.7995 397.555 31.9453C397.07 32.0859 396.529 32.1562 395.93 32.1562C395.404 32.1562 394.885 32.0833 394.375 31.9375C393.87 31.7917 393.409 31.5729 392.992 31.2812C392.581 30.9896 392.25 30.6302 392 30.2031C391.755 29.7708 391.633 29.2708 391.633 28.7031H393.133C393.133 29.0938 393.208 29.4297 393.359 29.7109C393.51 29.987 393.716 30.2161 393.977 30.3984C394.242 30.5807 394.542 30.7161 394.875 30.8047C395.214 30.888 395.565 30.9297 395.93 30.9297C396.456 30.9297 396.901 30.8568 397.266 30.7109C397.63 30.5651 397.906 30.3568 398.094 30.0859C398.286 29.8151 398.383 29.4948 398.383 29.125ZM406.773 30.0469V23.5469H408.227V32H406.844L406.773 30.0469ZM407.047 28.2656L407.648 28.25C407.648 28.8125 407.589 29.3333 407.469 29.8125C407.354 30.2865 407.167 30.6979 406.906 31.0469C406.646 31.3958 406.305 31.6693 405.883 31.8672C405.461 32.0599 404.948 32.1562 404.344 32.1562C403.932 32.1562 403.555 32.0964 403.211 31.9766C402.872 31.8568 402.581 31.6719 402.336 31.4219C402.091 31.1719 401.901 30.8464 401.766 30.4453C401.635 30.0443 401.57 29.5625 401.57 29V23.5469H403.016V29.0156C403.016 29.3958 403.057 29.7109 403.141 29.9609C403.229 30.2057 403.346 30.401 403.492 30.5469C403.643 30.6875 403.81 30.7865 403.992 30.8438C404.18 30.901 404.372 30.9297 404.57 30.9297C405.185 30.9297 405.672 30.8125 406.031 30.5781C406.391 30.3385 406.648 30.0182 406.805 29.6172C406.966 29.2109 407.047 28.7604 407.047 28.2656ZM410.422 20H411.875V30.3594L411.75 32H410.422V20ZM417.586 27.7031V27.8672C417.586 28.4818 417.513 29.0521 417.367 29.5781C417.221 30.099 417.008 30.5521 416.727 30.9375C416.445 31.3229 416.102 31.6224 415.695 31.8359C415.289 32.0495 414.823 32.1562 414.297 32.1562C413.76 32.1562 413.289 32.0651 412.883 31.8828C412.482 31.6953 412.143 31.4271 411.867 31.0781C411.591 30.7292 411.37 30.3073 411.203 29.8125C411.042 29.3177 410.93 28.7604 410.867 28.1406V27.4219C410.93 26.7969 411.042 26.237 411.203 25.7422C411.37 25.2474 411.591 24.8255 411.867 24.4766C412.143 24.1224 412.482 23.8542 412.883 23.6719C413.284 23.4844 413.75 23.3906 414.281 23.3906C414.812 23.3906 415.284 23.4948 415.695 23.7031C416.107 23.9062 416.451 24.1979 416.727 24.5781C417.008 24.9583 417.221 25.4141 417.367 25.9453C417.513 26.4714 417.586 27.0573 417.586 27.7031ZM416.133 27.8672V27.7031C416.133 27.2812 416.094 26.8854 416.016 26.5156C415.938 26.1406 415.812 25.8125 415.641 25.5312C415.469 25.2448 415.242 25.0208 414.961 24.8594C414.68 24.6927 414.333 24.6094 413.922 24.6094C413.557 24.6094 413.24 24.6719 412.969 24.7969C412.703 24.9219 412.477 25.0911 412.289 25.3047C412.102 25.513 411.948 25.7526 411.828 26.0234C411.714 26.2891 411.628 26.5651 411.57 26.8516V28.7344C411.654 29.099 411.789 29.4505 411.977 29.7891C412.169 30.1224 412.424 30.3958 412.742 30.6094C413.065 30.8229 413.464 30.9297 413.938 30.9297C414.328 30.9297 414.661 30.8516 414.938 30.6953C415.219 30.5339 415.445 30.3125 415.617 30.0312C415.794 29.75 415.924 29.4245 416.008 29.0547C416.091 28.6849 416.133 28.2891 416.133 27.8672ZM420.852 25.2266V32H419.398V23.5469H420.773L420.852 25.2266ZM420.555 27.4531L419.883 27.4297C419.888 26.8516 419.964 26.3177 420.109 25.8281C420.255 25.3333 420.471 24.9036 420.758 24.5391C421.044 24.1745 421.401 23.8932 421.828 23.6953C422.255 23.4922 422.75 23.3906 423.312 23.3906C423.708 23.3906 424.073 23.4479 424.406 23.5625C424.74 23.6719 425.029 23.8464 425.273 24.0859C425.518 24.3255 425.708 24.6328 425.844 25.0078C425.979 25.3828 426.047 25.8359 426.047 26.3672V32H424.602V26.4375C424.602 25.9948 424.526 25.6406 424.375 25.375C424.229 25.1094 424.021 24.9167 423.75 24.7969C423.479 24.6719 423.161 24.6094 422.797 24.6094C422.37 24.6094 422.013 24.6849 421.727 24.8359C421.44 24.987 421.211 25.1953 421.039 25.4609C420.867 25.7266 420.742 26.0312 420.664 26.375C420.591 26.7135 420.555 27.0729 420.555 27.4531ZM426.031 26.6562L425.062 26.9531C425.068 26.4896 425.143 26.0443 425.289 25.6172C425.44 25.1901 425.656 24.8099 425.938 24.4766C426.224 24.1432 426.576 23.8802 426.992 23.6875C427.409 23.4896 427.885 23.3906 428.422 23.3906C428.875 23.3906 429.276 23.4505 429.625 23.5703C429.979 23.6901 430.276 23.875 430.516 24.125C430.76 24.3698 430.945 24.6849 431.07 25.0703C431.195 25.4557 431.258 25.9141 431.258 26.4453V32H429.805V26.4297C429.805 25.9557 429.729 25.5885 429.578 25.3281C429.432 25.0625 429.224 24.8776 428.953 24.7734C428.688 24.6641 428.37 24.6094 428 24.6094C427.682 24.6094 427.401 24.6641 427.156 24.7734C426.911 24.8828 426.706 25.0339 426.539 25.2266C426.372 25.4141 426.245 25.6302 426.156 25.875C426.073 26.1198 426.031 26.3802 426.031 26.6562ZM435.016 23.5469V32H433.562V23.5469H435.016ZM433.453 21.3047C433.453 21.0703 433.523 20.8724 433.664 20.7109C433.81 20.5495 434.023 20.4688 434.305 20.4688C434.581 20.4688 434.792 20.5495 434.938 20.7109C435.089 20.8724 435.164 21.0703 435.164 21.3047C435.164 21.5286 435.089 21.7214 434.938 21.8828C434.792 22.0391 434.581 22.1172 434.305 22.1172C434.023 22.1172 433.81 22.0391 433.664 21.8828C433.523 21.7214 433.453 21.5286 433.453 21.3047ZM440.875 23.5469V24.6562H436.305V23.5469H440.875ZM437.852 21.4922H439.297V29.9062C439.297 30.1927 439.341 30.4089 439.43 30.5547C439.518 30.7005 439.633 30.7969 439.773 30.8438C439.914 30.8906 440.065 30.9141 440.227 30.9141C440.346 30.9141 440.471 30.9036 440.602 30.8828C440.737 30.8568 440.839 30.8359 440.906 30.8203L440.914 32C440.799 32.0365 440.648 32.0703 440.461 32.1016C440.279 32.138 440.057 32.1562 439.797 32.1562C439.443 32.1562 439.117 32.0859 438.82 31.9453C438.523 31.8047 438.286 31.5703 438.109 31.2422C437.938 30.9089 437.852 30.4609 437.852 29.8984V21.4922Z" fill="#FAFAFC"/>
</svg>
